<svg width="164" height="30" viewBox="0 0 164 30" fill="none" xmlns="http://www.w3.org/2000/svg">
<path d="M31 15H25L20.5 29L16 15L11.5 1L7 15H1" stroke="#00FFC2" stroke-width="2" stroke-linecap="round" stroke-linejoin="round"/>
<path d="M58.04 9.04L54.14 23H50.84L48.22 13.06L45.48 23L42.2 23.02L38.44 9.04H41.44L43.9 19.88L46.74 9.04H49.86L52.54 19.82L55.02 9.04H58.04ZM59.1483 17.42C59.1483 16.3 59.3683 15.3067 59.8083 14.44C60.2616 13.5733 60.8683 12.9067 61.6283 12.44C62.4016 11.9733 63.2616 11.74 64.2083 11.74C65.0349 11.74 65.7549 11.9067 66.3683 12.24C66.9949 12.5733 67.4949 12.9933 67.8683 13.5V11.92H70.6883V23H67.8683V21.38C67.5083 21.9 67.0083 22.3333 66.3683 22.68C65.7416 23.0133 65.0149 23.18 64.1883 23.18C63.2549 23.18 62.4016 22.94 61.6283 22.46C60.8683 21.98 60.2616 21.3067 59.8083 20.44C59.3683 19.56 59.1483 18.5533 59.1483 17.42ZM67.8683 17.46C67.8683 16.78 67.7349 16.2 67.4683 15.72C67.2016 15.2267 66.8416 14.8533 66.3883 14.6C65.9349 14.3333 65.4483 14.2 64.9283 14.2C64.4083 14.2 63.9283 14.3267 63.4883 14.58C63.0483 14.8333 62.6883 15.2067 62.4083 15.7C62.1416 16.18 62.0083 16.7533 62.0083 17.42C62.0083 18.0867 62.1416 18.6733 62.4083 19.18C62.6883 19.6733 63.0483 20.0533 63.4883 20.32C63.9416 20.5867 64.4216 20.72 64.9283 20.72C65.4483 20.72 65.9349 20.5933 66.3883 20.34C66.8416 20.0733 67.2016 19.7 67.4683 19.22C67.7349 18.7267 67.8683 18.14 67.8683 17.46ZM76.223 13.64C76.583 13.0533 77.0496 12.5933 77.623 12.26C78.2096 11.9267 78.8763 11.76 79.623 11.76V14.7H78.883C78.003 14.7 77.3363 14.9067 76.883 15.32C76.443 15.7333 76.223 16.4533 76.223 17.48V23H73.423V11.92H76.223V13.64ZM84.3089 13.54C84.6689 13.0067 85.1622 12.5733 85.7889 12.24C86.4289 11.9067 87.1556 11.74 87.9689 11.74C88.9156 11.74 89.7689 11.9733 90.5289 12.44C91.3022 12.9067 91.9089 13.5733 92.3489 14.44C92.8022 15.2933 93.0289 16.2867 93.0289 17.42C93.0289 18.5533 92.8022 19.56 92.3489 20.44C91.9089 21.3067 91.3022 21.98 90.5289 22.46C89.7689 22.94 88.9156 23.18 87.9689 23.18C87.1422 23.18 86.4156 23.02 85.7889 22.7C85.1756 22.3667 84.6822 21.94 84.3089 21.42V23H81.5089V8.2H84.3089V13.54ZM90.1689 17.42C90.1689 16.7533 90.0289 16.18 89.7489 15.7C89.4822 15.2067 89.1222 14.8333 88.6689 14.58C88.2289 14.3267 87.7489 14.2 87.2289 14.2C86.7222 14.2 86.2422 14.3333 85.7889 14.6C85.3489 14.8533 84.9889 15.2267 84.7089 15.72C84.4422 16.2133 84.3089 16.7933 84.3089 17.46C84.3089 18.1267 84.4422 18.7067 84.7089 19.2C84.9889 19.6933 85.3489 20.0733 85.7889 20.34C86.2422 20.5933 86.7222 20.72 87.2289 20.72C87.7489 20.72 88.2289 20.5867 88.6689 20.32C89.1222 20.0533 89.4822 19.6733 89.7489 19.18C90.0289 18.6867 90.1689 18.1 90.1689 17.42ZM96.4836 10.6C95.9903 10.6 95.5769 10.4467 95.2436 10.14C94.9236 9.82 94.7636 9.42667 94.7636 8.96C94.7636 8.49333 94.9236 8.10667 95.2436 7.8C95.5769 7.48 95.9903 7.32 96.4836 7.32C96.9769 7.32 97.3836 7.48 97.7036 7.8C98.0369 8.10667 98.2036 8.49333 98.2036 8.96C98.2036 9.42667 98.0369 9.82 97.7036 10.14C97.3836 10.4467 96.9769 10.6 96.4836 10.6ZM97.8636 11.92V23H95.0636V11.92H97.8636ZM103.89 14.22V19.58C103.89 19.9533 103.977 20.2267 104.15 20.4C104.337 20.56 104.643 20.64 105.07 20.64H106.37V23H104.61C102.25 23 101.07 21.8533 101.07 19.56V14.22H99.75V11.92H101.07V9.18H103.89V11.92H106.37V14.22H103.89ZM111.184 13.64C111.544 13.0533 112.011 12.5933 112.584 12.26C113.171 11.9267 113.837 11.76 114.584 11.76V14.7H113.844C112.964 14.7 112.297 14.9067 111.844 15.32C111.404 15.7333 111.184 16.4533 111.184 17.48V23H108.384V11.92H111.184V13.64ZM115.75 17.42C115.75 16.3 115.97 15.3067 116.41 14.44C116.863 13.5733 117.47 12.9067 118.23 12.44C119.003 11.9733 119.863 11.74 120.81 11.74C121.637 11.74 122.357 11.9067 122.97 12.24C123.597 12.5733 124.097 12.9933 124.47 13.5V11.92H127.29V23H124.47V21.38C124.11 21.9 123.61 22.3333 122.97 22.68C122.343 23.0133 121.617 23.18 120.79 23.18C119.857 23.18 119.003 22.94 118.23 22.46C117.47 21.98 116.863 21.3067 116.41 20.44C115.97 19.56 115.75 18.5533 115.75 17.42ZM124.47 17.46C124.47 16.78 124.337 16.2 124.07 15.72C123.803 15.2267 123.443 14.8533 122.99 14.6C122.537 14.3333 122.05 14.2 121.53 14.2C121.01 14.2 120.53 14.3267 120.09 14.58C119.65 14.8333 119.29 15.2067 119.01 15.7C118.743 16.18 118.61 16.7533 118.61 17.42C118.61 18.0867 118.743 18.6733 119.01 19.18C119.29 19.6733 119.65 20.0533 120.09 20.32C120.543 20.5867 121.023 20.72 121.53 20.72C122.05 20.72 122.537 20.5933 122.99 20.34C123.443 20.0733 123.803 19.7 124.07 19.22C124.337 18.7267 124.47 18.14 124.47 17.46ZM134.365 11.74C135.191 11.74 135.918 11.9067 136.545 12.24C137.171 12.56 137.665 12.98 138.025 13.5V11.92H140.845V23.08C140.845 24.1067 140.638 25.02 140.225 25.82C139.811 26.6333 139.191 27.2733 138.365 27.74C137.538 28.22 136.538 28.46 135.365 28.46C133.791 28.46 132.498 28.0933 131.485 27.36C130.485 26.6267 129.918 25.6267 129.785 24.36H132.565C132.711 24.8667 133.025 25.2667 133.505 25.56C133.998 25.8667 134.591 26.02 135.285 26.02C136.098 26.02 136.758 25.7733 137.265 25.28C137.771 24.8 138.025 24.0667 138.025 23.08V21.36C137.665 21.88 137.165 22.3133 136.525 22.66C135.898 23.0067 135.178 23.18 134.365 23.18C133.431 23.18 132.578 22.94 131.805 22.46C131.031 21.98 130.418 21.3067 129.965 20.44C129.525 19.56 129.305 18.5533 129.305 17.42C129.305 16.3 129.525 15.3067 129.965 14.44C130.418 13.5733 131.025 12.9067 131.785 12.44C132.558 11.9733 133.418 11.74 134.365 11.74ZM138.025 17.46C138.025 16.78 137.891 16.2 137.625 15.72C137.358 15.2267 136.998 14.8533 136.545 14.6C136.091 14.3333 135.605 14.2 135.085 14.2C134.565 14.2 134.085 14.3267 133.645 14.58C133.205 14.8333 132.845 15.2067 132.565 15.7C132.298 16.18 132.165 16.7533 132.165 17.42C132.165 18.0867 132.298 18.6733 132.565 19.18C132.845 19.6733 133.205 20.0533 133.645 20.32C134.098 20.5867 134.578 20.72 135.085 20.72C135.605 20.72 136.091 20.5933 136.545 20.34C136.998 20.0733 137.358 19.7 137.625 19.22C137.891 18.7267 138.025 18.14 138.025 17.46ZM153.879 17.22C153.879 17.62 153.853 17.98 153.799 18.3H145.699C145.766 19.1 146.046 19.7267 146.539 20.18C147.033 20.6333 147.639 20.86 148.359 20.86C149.399 20.86 150.139 20.4133 150.579 19.52H153.599C153.279 20.5867 152.666 21.4667 151.759 22.16C150.853 22.84 149.739 23.18 148.419 23.18C147.353 23.18 146.393 22.9467 145.539 22.48C144.699 22 144.039 21.3267 143.559 20.46C143.093 19.5933 142.859 18.5933 142.859 17.46C142.859 16.3133 143.093 15.3067 143.559 14.44C144.026 13.5733 144.679 12.9067 145.519 12.44C146.359 11.9733 147.326 11.74 148.419 11.74C149.473 11.74 150.413 11.9667 151.239 12.42C152.079 12.8733 152.726 13.52 153.179 14.36C153.646 15.1867 153.879 16.14 153.879 17.22ZM150.979 16.42C150.966 15.7 150.706 15.1267 150.199 14.7C149.693 14.26 149.073 14.04 148.339 14.04C147.646 14.04 147.059 14.2533 146.579 14.68C146.113 15.0933 145.826 15.6733 145.719 16.42H150.979Z" fill="white"/>
</svg>
